<svg width="400" height="300" viewBox="0 0 400 300" fill="none" xmlns="http://www.w3.org/2000/svg">
  <rect width="400" height="300" fill="#1c1c1e"/>
  
  <!-- Background Pattern -->
  <defs>
    <pattern id="grid" width="20" height="20" patternUnits="userSpaceOnUse">
      <path d="M 20 0 L 0 0 0 20" fill="none" stroke="#00ffae" stroke-width="0.5" opacity="0.1"/>
    </pattern>
  </defs>
  <rect width="400" height="300" fill="url(#grid)"/>
  
  <!-- Cloud Icon -->
  <g transform="translate(150, 60)">
    <path d="M60 40C60 25 48 13 33 13C18 13 6 25 6 40C6 55 18 67 33 67H60C75 67 87 55 87 40C87 25 75 13 60 13C60 13 60 13 60 13Z" fill="#00ffae" opacity="0.8"/>
    <path d="M60 40C60 25 48 13 33 13C18 13 6 25 6 40C6 55 18 67 33 67H60C75 67 87 55 87 40C87 25 75 13 60 13C60 13 60 13 60 13Z" fill="none" stroke="#00ffae" stroke-width="2"/>
    
    <!-- AWS Logo Style -->
    <text x="46.5" y="45" text-anchor="middle" fill="#1c1c1e" font-family="monospace" font-size="16" font-weight="bold">AWS</text>
  </g>
  
  <!-- Dashboard Charts -->
  <g transform="translate(50, 160)">
    <!-- Bar Chart -->
    <rect x="0" y="0" width="8" height="40" fill="#00ffae" opacity="0.8"/>
    <rect x="12" y="10" width="8" height="30" fill="#00ffae" opacity="0.6"/>
    <rect x="24" y="5" width="8" height="35" fill="#00ffae" opacity="0.8"/>
    <rect x="36" y="15" width="8" height="25" fill="#00ffae" opacity="0.6"/>
    <rect x="48" y="0" width="8" height="40" fill="#00ffae" opacity="0.8"/>
    
    <!-- Line Chart -->
    <path d="M80 40 L90 35 L100 20 L110 30 L120 15 L130 25 L140 10" stroke="#00ffae" stroke-width="2" fill="none"/>
    <circle cx="80" cy="40" r="3" fill="#00ffae"/>
    <circle cx="90" cy="35" r="3" fill="#00ffae"/>
    <circle cx="100" cy="20" r="3" fill="#00ffae"/>
    <circle cx="110" cy="30" r="3" fill="#00ffae"/>
    <circle cx="120" cy="15" r="3" fill="#00ffae"/>
    <circle cx="130" cy="25" r="3" fill="#00ffae"/>
    <circle cx="140" cy="10" r="3" fill="#00ffae"/>
  </g>
  
  <!-- Cost Metrics -->
  <g transform="translate(250, 160)">
    <circle cx="20" cy="20" r="18" fill="none" stroke="#00ffae" stroke-width="3" opacity="0.6"/>
    <path d="M20 2 A18 18 0 0 1 20 38 A18 18 0 0 1 20 2" fill="none" stroke="#00ffae" stroke-width="3" stroke-dasharray="28 56"/>
    <text x="20" y="25" text-anchor="middle" fill="#00ffae" font-family="monospace" font-size="10" font-weight="bold">$2.4K</text>
  </g>
  
  <!-- Text -->
  <text x="200" y="280" text-anchor="middle" fill="#00ffae" font-family="monospace" font-size="12" font-weight="bold">CloudGuard Dashboard</text>
</svg>
